<svg xmlns="http://www.w3.org/2000/svg" viewBox="0 0 720 115" role="img" aria-label="Studio Desing">
  <path fill="currentColor" d="M251 11h18v1H251z M561 11h18v1H561z M251 12h18v1H251z M561 12h18v1H561z M251 13h18v1H251z M561 13h18v1H561z M224 14h17v1H224z M251 14h18v1H251z M561 14h18v1H561z M23 15h19v1H23z M224 15h17v1H224z M251 15h18v1H251z M561 15h18v1H561z M19 16h26v1H19z M224 16h17v1H224z M251 16h18v1H251z M372 16h36v1H372z M561 16h18v1H561z M17 17h30v1H17z M224 17h17v1H224z M251 17h18v1H251z M372 17h40v1H372z M561 17h18v1H561z M15 18h34v1H15z M224 18h17v1H224z M251 18h18v1H251z M372 18h43v1H372z M561 18h18v1H561z M14 19h37v1H14z M79 19h14v1H79z M224 19h17v1H224z M251 19h18v1H251z M372 19h45v1H372z M561 19h18v1H561z M12 20h40v1H12z M79 20h14v1H79z M224 20h17v1H224z M251 20h18v1H251z M372 20h46v1H372z M561 20h18v1H561z M11 21h42v1H11z M79 21h14v1H79z M224 21h17v1H224z M251 21h18v1H251z M372 21h48v1H372z M561 21h18v1H561z M10 22h44v1H10z M79 22h14v1H79z M224 22h17v1H224z M251 22h18v1H251z M372 22h49v1H372z M561 22h18v1H561z M9 23h46v1H9z M79 23h14v1H79z M224 23h17v1H224z M251 23h18v1H251z M372 23h50v1H372z M561 23h18v1H561z M8 24h48v1H8z M79 24h14v1H79z M224 24h17v1H224z M251 24h18v1H251z M372 24h51v1H372z M561 24h18v1H561z M8 25h49v1H8z M79 25h14v1H79z M224 25h17v1H224z M251 25h18v1H251z M372 25h52v1H372z M561 25h18v1H561z M7 26h50v1H7z M79 26h14v1H79z M224 26h17v1H224z M372 26h53v1H372z M7 27h51v1H7z M78 27h15v1H78z M224 27h17v1H224z M372 27h54v1H372z M6 28h52v1H6z M78 28h15v1H78z M224 28h17v1H224z M372 28h55v1H372z M6 29h20v1H6z M37 29h22v1H37z M78 29h15v1H78z M224 29h17v1H224z M372 29h55v1H372z M6 30h18v1H6z M39 30h20v1H39z M78 30h15v1H78z M224 30h17v1H224z M372 30h56v1H372z M5 31h18v1H5z M41 31h19v1H41z M78 31h15v1H78z M224 31h17v1H224z M372 31h17v1H372z M398 31h31v1H398z M5 32h17v1H5z M42 32h18v1H42z M78 32h15v1H78z M224 32h17v1H224z M372 32h17v1H372z M405 32h24v1H405z M5 33h16v1H5z M43 33h18v1H43z M78 33h15v1H78z M199 33h15v1H199z M224 33h17v1H224z M300 33h19v1H300z M372 33h17v1H372z M408 33h22v1H408z M462 33h16v1H462z M520 33h18v1H520z M615 33h17v1H615z M674 33h14v1H674z M5 34h16v1H5z M43 34h18v1H43z M66 34h42v1H66z M115 34h16v1H115z M155 34h16v1H155z M197 34h19v1H197z M224 34h17v1H224z M252 34h16v1H252z M296 34h26v1H296z M372 34h17v1H372z M409 34h21v1H409z M459 34h22v1H459z M516 34h25v1H516z M562 34h16v1H562z M590 34h15v1H590z M613 34h22v1H613z M672 34h18v1H672z M699 34h16v1H699z M5 35h16v1H5z M44 35h16v1H44z M66 35h42v1H66z M115 35h16v1H115z M155 35h16v1H155z M195 35h23v1H195z M224 35h17v1H224z M252 35h16v1H252z M294 35h31v1H294z M372 35h17v1H372z M411 35h20v1H411z M456 35h27v1H456z M514 35h29v1H514z M562 35h16v1H562z M590 35h16v1H590z M611 35h26v1H611z M670 35h22v1H670z M699 35h16v1H699z M5 36h16v1H5z M45 36h12v1H45z M66 36h42v1H66z M115 36h16v1H115z M155 36h16v1H155z M193 36h26v1H193z M224 36h17v1H224z M252 36h16v1H252z M292 36h35v1H292z M372 36h17v1H372z M412 36h19v1H412z M454 36h31v1H454z M512 36h33v1H512z M562 36h16v1H562z M590 36h16v1H590z M610 36h29v1H610z M668 36h25v1H668z M699 36h16v1H699z M5 37h17v1H5z M45 37h9v1H45z M66 37h42v1H66z M115 37h16v1H115z M155 37h16v1H155z M192 37h28v1H192z M224 37h17v1H224z M252 37h16v1H252z M290 37h39v1H290z M372 37h17v1H372z M412 37h19v1H412z M453 37h34v1H453z M511 37h35v1H511z M562 37h16v1H562z M590 37h16v1H590z M609 37h31v1H609z M667 37h28v1H667z M699 37h16v1H699z M5 38h17v1H5z M45 38h7v1H45z M66 38h42v1H66z M115 38h16v1H115z M155 38h16v1H155z M191 38h30v1H191z M224 38h17v1H224z M252 38h16v1H252z M288 38h42v1H288z M372 38h17v1H372z M413 38h19v1H413z M452 38h36v1H452z M509 38h39v1H509z M562 38h16v1H562z M590 38h16v1H590z M607 38h34v1H607z M666 38h30v1H666z M698 38h17v1H698z M5 39h18v1H5z M46 39h3v1H46z M66 39h42v1H66z M115 39h16v1H115z M155 39h16v1H155z M189 39h33v1H189z M224 39h17v1H224z M252 39h16v1H252z M287 39h44v1H287z M372 39h17v1H372z M413 39h19v1H413z M450 39h39v1H450z M508 39h41v1H508z M562 39h16v1H562z M590 39h52v1H590z M665 39h31v1H665z M698 39h17v1H698z M5 40h20v1H5z M66 40h42v1H66z M115 40h16v1H115z M155 40h16v1H155z M189 40h34v1H189z M224 40h17v1H224z M252 40h16v1H252z M286 40h47v1H286z M372 40h17v1H372z M414 40h18v1H414z M449 40h41v1H449z M507 40h42v1H507z M562 40h16v1H562z M590 40h53v1H590z M664 40h33v1H664z M698 40h17v1H698z M5 41h23v1H5z M66 41h42v1H66z M115 41h16v1H115z M155 41h16v1H155z M188 41h35v1H188z M224 41h17v1H224z M252 41h16v1H252z M285 41h49v1H285z M372 41h17v1H372z M414 41h18v1H414z M448 41h43v1H448z M507 41h43v1H507z M562 41h16v1H562z M590 41h54v1H590z M663 41h52v1H663z M5 42h26v1H5z M66 42h42v1H66z M115 42h16v1H115z M155 42h16v1H155z M187 42h54v1H187z M252 42h16v1H252z M284 42h51v1H284z M372 42h17v1H372z M415 42h18v1H415z M447 42h45v1H447z M506 42h45v1H506z M562 42h16v1H562z M590 42h54v1H590z M662 42h53v1H662z M5 43h30v1H5z M66 43h42v1H66z M115 43h16v1H115z M155 43h16v1H155z M186 43h55v1H186z M252 43h16v1H252z M283 43h52v1H283z M372 43h17v1H372z M415 43h18v1H415z M447 43h45v1H447z M505 43h46v1H505z M562 43h16v1H562z M590 43h55v1H590z M661 43h54v1H661z M6 44h34v1H6z M66 44h42v1H66z M115 44h16v1H115z M155 44h16v1H155z M186 44h55v1H186z M252 44h16v1H252z M282 44h54v1H282z M372 44h17v1H372z M415 44h18v1H415z M446 44h47v1H446z M505 44h47v1H505z M562 44h16v1H562z M590 44h55v1H590z M661 44h54v1H661z M6 45h37v1H6z M66 45h42v1H66z M115 45h16v1H115z M155 45h16v1H155z M185 45h56v1H185z M252 45h16v1H252z M282 45h55v1H282z M372 45h17v1H372z M415 45h18v1H415z M445 45h49v1H445z M505 45h47v1H505z M562 45h16v1H562z M590 45h55v1H590z M660 45h55v1H660z M7 46h39v1H7z M66 46h42v1H66z M115 46h16v1H115z M155 46h16v1H155z M184 46h57v1H184z M252 46h16v1H252z M281 46h57v1H281z M372 46h17v1H372z M416 46h17v1H416z M445 46h49v1H445z M504 46h18v1H504z M533 46h20v1H533z M562 46h16v1H562z M590 46h56v1H590z M659 46h56v1H659z M7 47h42v1H7z M66 47h42v1H66z M115 47h16v1H115z M155 47h16v1H155z M184 47h57v1H184z M252 47h16v1H252z M280 47h58v1H280z M372 47h17v1H372z M416 47h17v1H416z M444 47h51v1H444z M504 47h17v1H504z M535 47h18v1H535z M562 47h16v1H562z M590 47h56v1H590z M659 47h56v1H659z M8 48h43v1H8z M67 48h40v1H67z M115 48h16v1H115z M155 48h16v1H155z M183 48h23v1H183z M216 48h25v1H216z M252 48h16v1H252z M280 48h23v1H280z M315 48h24v1H315z M372 48h17v1H372z M416 48h17v1H416z M444 48h21v1H444z M475 48h20v1H475z M504 48h16v1H504z M536 48h17v1H536z M562 48h16v1H562z M590 48h25v1H590z M625 48h21v1H625z M658 48h23v1H658z M690 48h25v1H690z M8 49h45v1H8z M77 49h17v1H77z M115 49h16v1H115z M155 49h16v1H155z M183 49h21v1H183z M218 49h23v1H218z M252 49h16v1H252z M279 49h22v1H279z M317 49h22v1H317z M372 49h17v1H372z M416 49h18v1H416z M443 49h20v1H443z M477 49h18v1H477z M504 49h16v1H504z M537 49h16v1H537z M562 49h16v1H562z M590 49h23v1H590z M626 49h20v1H626z M658 49h21v1H658z M692 49h23v1H692z M9 50h45v1H9z M77 50h17v1H77z M115 50h16v1H115z M155 50h16v1H155z M183 50h20v1H183z M220 50h21v1H220z M252 50h16v1H252z M279 50h20v1H279z M319 50h21v1H319z M372 50h17v1H372z M416 50h18v1H416z M443 50h19v1H443z M479 50h17v1H479z M504 50h15v1H504z M538 50h11v1H538z M562 50h16v1H562z M590 50h21v1H590z M628 50h18v1H628z M658 50h19v1H658z M694 50h21v1H694z M10 51h45v1H10z M77 51h17v1H77z M115 51h16v1H115z M155 51h16v1H155z M182 51h20v1H182z M221 51h20v1H221z M252 51h16v1H252z M279 51h19v1H279z M320 51h20v1H320z M372 51h17v1H372z M416 51h18v1H416z M443 51h18v1H443z M480 51h16v1H480z M504 51h16v1H504z M538 51h7v1H538z M562 51h16v1H562z M590 51h20v1H590z M628 51h18v1H628z M657 51h19v1H657z M695 51h20v1H695z M11 52h45v1H11z M77 52h17v1H77z M115 52h16v1H115z M155 52h16v1H155z M182 52h19v1H182z M221 52h20v1H221z M252 52h16v1H252z M278 52h19v1H278z M321 52h19v1H321z M372 52h17v1H372z M416 52h18v1H416z M442 52h18v1H442z M480 52h16v1H480z M504 52h17v1H504z M538 52h4v1H538z M562 52h16v1H562z M590 52h19v1H590z M629 52h17v1H629z M657 52h19v1H657z M696 52h19v1H696z M13 53h44v1H13z M77 53h17v1H77z M115 53h16v1H115z M155 53h16v1H155z M182 53h18v1H182z M222 53h19v1H222z M252 53h16v1H252z M278 53h18v1H278z M322 53h18v1H322z M372 53h17v1H372z M416 53h18v1H416z M442 53h18v1H442z M481 53h15v1H481z M504 53h19v1H504z M562 53h16v1H562z M590 53h19v1H590z M629 53h17v1H629z M657 53h18v1H657z M696 53h19v1H696z M14 54h44v1H14z M77 54h17v1H77z M115 54h16v1H115z M155 54h16v1H155z M182 54h18v1H182z M223 54h18v1H223z M252 54h16v1H252z M278 54h18v1H278z M323 54h18v1H323z M372 54h17v1H372z M416 54h18v1H416z M442 54h17v1H442z M481 54h15v1H481z M504 54h22v1H504z M562 54h16v1H562z M590 54h18v1H590z M629 54h17v1H629z M657 54h17v1H657z M697 54h18v1H697z M16 55h43v1H16z M77 55h17v1H77z M115 55h16v1H115z M155 55h16v1H155z M181 55h18v1H181z M223 55h18v1H223z M252 55h16v1H252z M277 55h18v1H277z M323 55h18v1H323z M372 55h17v1H372z M416 55h18v1H416z M441 55h18v1H441z M481 55h16v1H481z M504 55h27v1H504z M562 55h16v1H562z M590 55h18v1H590z M629 55h17v1H629z M656 55h18v1H656z M697 55h18v1H697z M19 56h41v1H19z M77 56h17v1H77z M115 56h16v1H115z M155 56h16v1H155z M181 56h18v1H181z M223 56h18v1H223z M252 56h16v1H252z M277 56h18v1H277z M324 56h17v1H324z M372 56h17v1H372z M416 56h18v1H416z M441 56h17v1H441z M482 56h15v1H482z M504 56h32v1H504z M562 56h16v1H562z M590 56h17v1H590z M630 56h16v1H630z M656 56h18v1H656z M698 56h17v1H698z M22 57h38v1H22z M77 57h17v1H77z M115 57h16v1H115z M155 57h16v1H155z M181 57h18v1H181z M224 57h17v1H224z M252 57h16v1H252z M277 57h18v1H277z M324 57h17v1H324z M372 57h17v1H372z M416 57h18v1H416z M441 57h17v1H441z M482 57h15v1H482z M505 57h35v1H505z M562 57h16v1H562z M590 57h17v1H590z M630 57h16v1H630z M656 57h17v1H656z M698 57h17v1H698z M26 58h34v1H26z M77 58h17v1H77z M115 58h16v1H115z M155 58h16v1H155z M181 58h17v1H181z M224 58h17v1H224z M252 58h16v1H252z M277 58h17v1H277z M324 58h17v1H324z M372 58h17v1H372z M416 58h18v1H416z M441 58h56v1H441z M505 58h38v1H505z M562 58h16v1H562z M590 58h16v1H590z M630 58h16v1H630z M656 58h17v1H656z M698 58h17v1H698z M31 59h30v1H31z M77 59h17v1H77z M115 59h16v1H115z M155 59h16v1H155z M181 59h17v1H181z M224 59h17v1H224z M252 59h16v1H252z M277 59h17v1H277z M324 59h17v1H324z M372 59h17v1H372z M416 59h17v1H416z M441 59h56v1H441z M506 59h40v1H506z M562 59h16v1H562z M590 59h16v1H590z M630 59h16v1H630z M656 59h17v1H656z M698 59h17v1H698z M35 60h26v1H35z M77 60h17v1H77z M115 60h16v1H115z M155 60h16v1H155z M181 60h17v1H181z M224 60h17v1H224z M252 60h16v1H252z M277 60h17v1H277z M324 60h17v1H324z M372 60h17v1H372z M416 60h17v1H416z M441 60h56v1H441z M507 60h40v1H507z M562 60h16v1H562z M590 60h16v1H590z M630 60h16v1H630z M656 60h17v1H656z M698 60h17v1H698z M38 61h23v1H38z M77 61h17v1H77z M115 61h16v1H115z M155 61h16v1H155z M181 61h17v1H181z M224 61h17v1H224z M252 61h16v1H252z M277 61h17v1H277z M324 61h18v1H324z M372 61h17v1H372z M416 61h17v1H416z M441 61h56v1H441z M508 61h41v1H508z M562 61h16v1H562z M590 61h16v1H590z M630 61h16v1H630z M656 61h17v1H656z M698 61h17v1H698z M41 62h21v1H41z M77 62h17v1H77z M115 62h16v1H115z M155 62h16v1H155z M181 62h17v1H181z M224 62h17v1H224z M252 62h16v1H252z M277 62h17v1H277z M324 62h18v1H324z M372 62h17v1H372z M415 62h18v1H415z M441 62h56v1H441z M509 62h41v1H509z M562 62h16v1H562z M590 62h16v1H590z M630 62h16v1H630z M656 62h17v1H656z M698 62h17v1H698z M17 63h1v1H17z M43 63h19v1H43z M77 63h17v1H77z M115 63h16v1H115z M155 63h16v1H155z M181 63h17v1H181z M224 63h17v1H224z M252 63h16v1H252z M277 63h17v1H277z M324 63h18v1H324z M372 63h17v1H372z M415 63h18v1H415z M441 63h56v1H441z M510 63h41v1H510z M562 63h16v1H562z M590 63h16v1H590z M630 63h16v1H630z M656 63h17v1H656z M698 63h17v1H698z M14 64h4v1H14z M44 64h18v1H44z M77 64h17v1H77z M115 64h16v1H115z M155 64h16v1H155z M181 64h17v1H181z M224 64h17v1H224z M252 64h16v1H252z M277 64h17v1H277z M324 64h17v1H324z M372 64h17v1H372z M415 64h18v1H415z M441 64h56v1H441z M512 64h40v1H512z M562 64h16v1H562z M590 64h16v1H590z M630 64h16v1H630z M656 64h17v1H656z M698 64h17v1H698z M12 65h6v1H12z M45 65h17v1H45z M77 65h17v1H77z M115 65h16v1H115z M155 65h16v1H155z M181 65h17v1H181z M224 65h17v1H224z M252 65h16v1H252z M277 65h17v1H277z M324 65h17v1H324z M372 65h17v1H372z M414 65h19v1H414z M441 65h56v1H441z M514 65h38v1H514z M562 65h16v1H562z M590 65h16v1H590z M630 65h16v1H630z M656 65h17v1H656z M698 65h17v1H698z M9 66h10v1H9z M45 66h17v1H45z M77 66h17v1H77z M115 66h16v1H115z M154 66h17v1H154z M181 66h17v1H181z M224 66h17v1H224z M252 66h16v1H252z M277 66h17v1H277z M324 66h17v1H324z M372 66h17v1H372z M414 66h18v1H414z M441 66h56v1H441z M517 66h36v1H517z M562 66h16v1H562z M590 66h16v1H590z M630 66h16v1H630z M656 66h18v1H656z M697 66h18v1H697z M7 67h12v1H7z M45 67h17v1H45z M77 67h17v1H77z M115 67h16v1H115z M154 67h17v1H154z M181 67h17v1H181z M224 67h17v1H224z M252 67h16v1H252z M277 67h18v1H277z M324 67h17v1H324z M372 67h17v1H372z M414 67h18v1H414z M441 67h17v1H441z M522 67h31v1H522z M562 67h16v1H562z M590 67h16v1H590z M630 67h16v1H630z M656 67h18v1H656z M697 67h18v1H697z M4 68h15v1H4z M46 68h16v1H46z M77 68h17v1H77z M115 68h16v1H115z M153 68h18v1H153z M181 68h18v1H181z M223 68h18v1H223z M252 68h16v1H252z M277 68h18v1H277z M324 68h17v1H324z M372 68h17v1H372z M413 68h19v1H413z M441 68h17v1H441z M528 68h26v1H528z M562 68h16v1H562z M590 68h16v1H590z M630 68h16v1H630z M656 68h19v1H656z M697 68h18v1H697z M2 69h18v1H2z M46 69h16v1H46z M77 69h17v1H77z M115 69h17v1H115z M153 69h18v1H153z M181 69h18v1H181z M223 69h18v1H223z M252 69h16v1H252z M277 69h18v1H277z M323 69h18v1H323z M372 69h17v1H372z M413 69h18v1H413z M441 69h18v1H441z M532 69h22v1H532z M562 69h16v1H562z M590 69h16v1H590z M630 69h16v1H630z M657 69h18v1H657z M696 69h19v1H696z M2 70h19v1H2z M46 70h16v1H46z M77 70h17v1H77z M115 70h17v1H115z M152 70h19v1H152z M182 70h18v1H182z M223 70h18v1H223z M252 70h16v1H252z M278 70h18v1H278z M323 70h18v1H323z M372 70h17v1H372z M412 70h19v1H412z M442 70h17v1H442z M536 70h18v1H536z M562 70h16v1H562z M590 70h16v1H590z M630 70h16v1H630z M657 70h19v1H657z M695 70h20v1H695z M2 71h19v1H2z M45 71h17v1H45z M77 71h17v1H77z M115 71h17v1H115z M151 71h20v1H151z M182 71h18v1H182z M222 71h19v1H222z M252 71h16v1H252z M278 71h18v1H278z M322 71h18v1H322z M372 71h17v1H372z M411 71h20v1H411z M442 71h18v1H442z M538 71h16v1H538z M562 71h16v1H562z M590 71h16v1H590z M630 71h16v1H630z M657 71h20v1H657z M694 71h21v1H694z M3 72h19v1H3z M45 72h16v1H45z M77 72h17v1H77z M115 72h18v1H115z M150 72h21v1H150z M182 72h19v1H182z M221 72h20v1H221z M252 72h16v1H252z M278 72h19v1H278z M321 72h19v1H321z M372 72h17v1H372z M410 72h20v1H410z M442 72h18v1H442z M483 72h2v1H483z M511 72h7v1H511z M538 72h16v1H538z M562 72h16v1H562z M590 72h16v1H590z M630 72h16v1H630z M657 72h22v1H657z M693 72h22v1H693z M3 73h20v1H3z M44 73h17v1H44z M77 73h17v1H77z M115 73h19v1H115z M148 73h23v1H148z M182 73h20v1H182z M221 73h20v1H221z M252 73h16v1H252z M279 73h19v1H279z M320 73h20v1H320z M372 73h17v1H372z M408 73h22v1H408z M442 73h19v1H442z M482 73h4v1H482z M505 73h13v1H505z M539 73h15v1H539z M562 73h16v1H562z M590 73h16v1H590z M630 73h16v1H630z M658 73h22v1H658z M691 73h24v1H691z M3 74h21v1H3z M43 74h18v1H43z M77 74h18v1H77z M115 74h21v1H115z M146 74h25v1H146z M183 74h20v1H183z M220 74h21v1H220z M252 74h16v1H252z M279 74h20v1H279z M319 74h20v1H319z M372 74h17v1H372z M406 74h23v1H406z M443 74h18v1H443z M481 74h7v1H481z M501 74h18v1H501z M539 74h15v1H539z M562 74h16v1H562z M590 74h16v1H590z M630 74h16v1H630z M658 74h57v1H658z M4 75h22v1H4z M42 75h19v1H42z M77 75h23v1H77z M115 75h56v1H115z M183 75h21v1H183z M218 75h23v1H218z M252 75h16v1H252z M279 75h22v1H279z M317 75h22v1H317z M372 75h17v1H372z M398 75h31v1H398z M443 75h19v1H443z M480 75h9v1H480z M501 75h18v1H501z M538 75h16v1H538z M562 75h16v1H562z M590 75h16v1H590z M630 75h16v1H630z M659 75h56v1H659z M4 76h24v1H4z M40 76h20v1H40z M77 76h29v1H77z M115 76h56v1H115z M183 76h23v1H183z M216 76h25v1H216z M252 76h16v1H252z M280 76h23v1H280z M315 76h24v1H315z M372 76h56v1H372z M444 76h20v1H444z M479 76h12v1H479z M502 76h18v1H502z M538 76h16v1H538z M562 76h16v1H562z M590 76h16v1H590z M630 76h16v1H630z M659 76h56v1H659z M5 77h55v1H5z M77 77h29v1H77z M115 77h56v1H115z M184 77h57v1H184z M252 77h16v1H252z M280 77h58v1H280z M372 77h56v1H372z M444 77h22v1H444z M477 77h15v1H477z M502 77h19v1H502z M537 77h17v1H537z M562 77h16v1H562z M590 77h16v1H590z M630 77h16v1H630z M660 77h55v1H660z M5 78h55v1H5z M77 78h29v1H77z M115 78h56v1H115z M184 78h57v1H184z M252 78h16v1H252z M281 78h57v1H281z M372 78h55v1H372z M445 78h49v1H445z M502 78h21v1H502z M535 78h18v1H535z M562 78h16v1H562z M590 78h16v1H590z M630 78h16v1H630z M660 78h55v1H660z M6 79h53v1H6z M78 79h28v1H78z M116 79h55v1H116z M185 79h56v1H185z M252 79h16v1H252z M282 79h55v1H282z M372 79h54v1H372z M445 79h50v1H445z M503 79h50v1H503z M562 79h16v1H562z M590 79h16v1H590z M630 79h16v1H630z M661 79h54v1H661z M6 80h53v1H6z M78 80h28v1H78z M116 80h55v1H116z M185 80h56v1H185z M252 80h16v1H252z M282 80h54v1H282z M372 80h54v1H372z M446 80h48v1H446z M503 80h50v1H503z M562 80h16v1H562z M590 80h16v1H590z M630 80h16v1H630z M662 80h53v1H662z M7 81h51v1H7z M78 81h28v1H78z M116 81h55v1H116z M186 81h55v1H186z M252 81h16v1H252z M283 81h52v1H283z M372 81h53v1H372z M447 81h47v1H447z M504 81h48v1H504z M562 81h16v1H562z M590 81h16v1H590z M630 81h16v1H630z M663 81h35v1H663z M699 81h16v1H699z M8 82h49v1H8z M79 82h27v1H79z M117 82h54v1H117z M187 82h54v1H187z M252 82h16v1H252z M284 82h50v1H284z M372 82h52v1H372z M447 82h46v1H447z M504 82h48v1H504z M562 82h16v1H562z M590 82h16v1H590z M630 82h16v1H630z M663 82h34v1H663z M699 82h16v1H699z M9 83h47v1H9z M79 83h27v1H79z M118 83h53v1H118z M188 83h53v1H188z M252 83h16v1H252z M285 83h49v1H285z M372 83h51v1H372z M448 83h44v1H448z M505 83h46v1H505z M562 83h16v1H562z M590 83h16v1H590z M630 83h16v1H630z M665 83h31v1H665z M699 83h16v1H699z M10 84h45v1H10z M80 84h26v1H80z M118 84h35v1H118z M155 84h16v1H155z M188 84h35v1H188z M224 84h17v1H224z M252 84h16v1H252z M286 84h47v1H286z M372 84h49v1H372z M449 84h42v1H449z M506 84h44v1H506z M562 84h16v1H562z M590 84h16v1H590z M630 84h16v1H630z M666 84h29v1H666z M699 84h16v1H699z M11 85h43v1H11z M81 85h25v1H81z M119 85h34v1H119z M155 85h16v1H155z M189 85h33v1H189z M224 85h17v1H224z M252 85h16v1H252z M287 85h44v1H287z M372 85h48v1H372z M450 85h40v1H450z M507 85h42v1H507z M562 85h16v1H562z M590 85h16v1H590z M630 85h16v1H630z M667 85h27v1H667z M699 85h16v1H699z M12 86h41v1H12z M81 86h25v1H81z M120 86h32v1H120z M155 86h16v1H155z M191 86h30v1H191z M224 86h17v1H224z M252 86h16v1H252z M288 86h42v1H288z M372 86h47v1H372z M451 86h38v1H451z M508 86h40v1H508z M562 86h16v1H562z M590 86h16v1H590z M630 86h16v1H630z M669 86h23v1H669z M699 86h16v1H699z M14 87h38v1H14z M82 87h24v1H82z M121 87h29v1H121z M155 87h16v1H155z M192 87h28v1H192z M224 87h17v1H224z M252 87h16v1H252z M290 87h39v1H290z M372 87h45v1H372z M453 87h35v1H453z M510 87h37v1H510z M562 87h16v1H562z M590 87h16v1H590z M630 87h16v1H630z M671 87h20v1H671z M699 87h16v1H699z M15 88h35v1H15z M83 88h23v1H83z M123 88h26v1H123z M155 88h16v1H155z M193 88h26v1H193z M225 88h16v1H225z M252 88h16v1H252z M292 88h35v1H292z M372 88h43v1H372z M454 88h33v1H454z M511 88h34v1H511z M562 88h16v1H562z M590 88h16v1H590z M630 88h16v1H630z M673 88h15v1H673z M699 88h16v1H699z M17 89h31v1H17z M85 89h21v1H85z M124 89h24v1H124z M155 89h16v1H155z M195 89h23v1H195z M225 89h16v1H225z M252 89h16v1H252z M294 89h31v1H294z M372 89h40v1H372z M456 89h29v1H456z M513 89h30v1H513z M562 89h16v1H562z M590 89h16v1H590z M630 89h16v1H630z M679 89h4v1H679z M699 89h16v1H699z M20 90h26v1H20z M87 90h19v1H87z M126 90h20v1H126z M156 90h15v1H156z M197 90h19v1H197z M225 90h16v1H225z M252 90h16v1H252z M296 90h26v1H296z M372 90h36v1H372z M459 90h24v1H459z M515 90h26v1H515z M562 90h16v1H562z M590 90h16v1H590z M630 90h16v1H630z M698 90h17v1H698z M23 91h19v1H23z M129 91h15v1H129z M199 91h15v1H199z M300 91h19v1H300z M462 91h18v1H462z M519 91h19v1H519z M698 91h17v1H698z M671 92h2v1H671z M698 92h17v1H698z M666 93h8v1H666z M698 93h16v1H698z M660 94h15v1H660z M697 94h17v1H697z M658 95h17v1H658z M697 95h17v1H697z M658 96h18v1H658z M696 96h18v1H696z M659 97h19v1H659z M695 97h18v1H695z M659 98h21v1H659z M693 98h20v1H693z M659 99h54v1H659z M660 100h52v1H660z M660 101h52v1H660z M661 102h50v1H661z M662 103h49v1H662z M662 104h48v1H662z M663 105h46v1H663z M664 106h44v1H664z M666 107h41v1H666z M667 108h39v1H667z M668 109h36v1H668z M670 110h32v1H670z M673 111h27v1H673z M676 112h20v1H676z"/>
</svg>
